<svg xmlns="http://www.w3.org/2000/svg" viewBox="0 0 64 64" role="img" aria-label="Gerostats">
  <defs>
    <linearGradient id="bg" x1="8" y1="8" x2="56" y2="56" gradientUnits="userSpaceOnUse">
      <stop stop-color="#0f172a"/>
      <stop offset="1" stop-color="#020617"/>
    </linearGradient>
    <linearGradient id="signal" x1="12" y1="44" x2="52" y2="14" gradientUnits="userSpaceOnUse">
      <stop stop-color="#2dd4bf"/>
      <stop offset="0.5" stop-color="#a3e635"/>
      <stop offset="1" stop-color="#38bdf8"/>
    </linearGradient>
  </defs>
  <rect width="64" height="64" rx="14" fill="url(#bg)"/>
  <path d="M14 14h36M14 26h36M14 38h36M14 50h36" stroke="#1e293b" stroke-width="1"/>
  <path d="M14 14v36M26 14v36M38 14v36M50 14v36" stroke="#1e293b" stroke-width="1"/>
  <rect x="16" y="39" width="7" height="11" rx="2" fill="#2dd4bf" opacity="0.9"/>
  <rect x="28.5" y="32" width="7" height="18" rx="2" fill="#a3e635" opacity="0.9"/>
  <rect x="41" y="24" width="7" height="26" rx="2" fill="#38bdf8" opacity="0.9"/>
  <path d="M14 42c7-1 11-7 16-10 5.5-3.4 9-3.1 14-10 2.3-3.2 4.6-5.4 7-6.5" fill="none" stroke="url(#signal)" stroke-width="4" stroke-linecap="round"/>
  <circle cx="14" cy="42" r="3.2" fill="#2dd4bf"/>
  <circle cx="30" cy="32" r="3.2" fill="#a3e635"/>
  <circle cx="44" cy="22" r="3.2" fill="#38bdf8"/>
  <path d="M12 51h40" stroke="#64748b" stroke-width="2" stroke-linecap="round"/>
</svg>
